{"title":"Tower Prep DVB-T.X264.Ari.S01E02 Greek Subs","uid":13393498,"size":366179256,"categoryP":"video","categoryS":"tv_shows","magnet":"?xt=urn:btih:909418b7f5fcba52209c978505a9e8da41c6760c&amp;dn=Tower+Prep+DVB-T.X264.Ari.S01E02+Greek+Subs&amp;tr=udp%3A%2F%2Ftracker.leechers-paradise.org%3A6969&amp;tr=udp%3A%2F%2Fzer0day.ch%3A1337&amp;tr=udp%3A%2F%2Fopen.demonii.com%3A1337&amp;tr=udp%3A%2F%2Ftracker.coppersurfer.tk%3A6969&amp;tr=udp%3A%2F%2Fexodus.desync.com%3A6969","seeders":0,"leechers":1,"uploader":"Aris2015","files":1,"time":1454357324,"description":"Î‘Ï…Ï„ÏŒ Î¤Î¿ Î‘ÏÏ‡ÎµÎ¯Î¿ Î Î¿Ï… ÎšÎ±Ï„ÎµÎ²Î¬ÏƒÎ±Ï„Îµ Î¤ÏŽÏÎ±, Î£Î¯Î³Î¿Ï…ÏÎ± Î˜Î± Î¸Î­Î»Î¿Ï…Î½ ÎÎ± Î¤Î¿ ÎšÎ±Ï„ÎµÎ²Î¬ÏƒÎ¿Ï…Î½ ÎšÎ¹ Î‘Î»Î»Î¿Î¹ Î§ÏÎ®ÏƒÏ„ÎµÏ‚! Î“Î¹Î± ÎÎ± Î“Î¯Î½ÎµÎ¹ Î‘Ï…Ï„ÏŒ...Î”ÎµÎ½ Î ÏÎ­Ï€ÎµÎ¹ ÎÎ± Î£Ï„Î±Î¼Î±Ï„Î¬Î¼Îµ Î‘Ï…Ï„Î¬ Î Î¿Ï… ÎšÎ±Ï„ÎµÎ²Î¬ÏƒÎ±Î¼Îµ ÎœÎ­Ï‡ÏÎ¹ ÎÎ± Î”ÏŽÏƒÎ¿Ï…Î¼Îµ Î Î¯ÏƒÏ‰ Î‘Ï…Ï„Î¬ Î Î¿Ï… Î Î®ÏÎ±Î¼Îµ,Î— ÎšÎ±Î¹ Î Î±ÏÎ±Ï€Î¬Î½Ï‰! ÎœÎ·Î½ ÎžÎµÏ‡Î½Î¬Î¼Îµ ÎŸÏ„Î¹ Î“Î¹Î± ÎÎ± ÎœÏ€Î¿ÏÎ¿ÏÎ¼Îµ ÎÎ± ÎšÎ±Ï„ÎµÎ²Î¬Î¶Î¿Ï…Î¼Îµ ÎœÎµ ÎšÎ±Î»Î­Ï‚ Î¤Î±Ï‡ÏÏ„Î·Ï„ÎµÏ‚ Î ÏÎ­Ï€ÎµÎ¹ ÎŸÎ»Î¿Î¹ ÎÎ± Î’Î¿Î·Î¸Î¬Î¼Îµ Î£Ï„Î¿Î½ Î”Î¹Î±Î¼Î¿Î¹ÏÎ±ÏƒÎ¼ÏŒ Î¤Î¿Î½ Î‘ÏÏ‡ÎµÎ¯Ï‰Î½, Î‘Î»Î»Î¬ ÎšÎ±Î¹ Î“Î¹Î± ÎÎ± ÎœÏ€Î¿ÏÎµÎ¯ Î•Î½Î±Ï‚ uploader ÎÎ± Î‘Î½ÎµÎ²Î¬Î¶ÎµÎ¹ ÎšÎ±Î¹ ÎÎ­Î± Î‘ÏÏ‡ÎµÎ¯Î± Î˜Î­Î»ÎµÎ¹ Ï„Î·Î½ Î’Î¿Î®Î¸ÎµÎ¹Î± \r\nÎŸÎ»Ï‰Î½ ÎœÎ±Ï‚ Î£Ï„Î¿Î½ Î”Î¹Î±Î¼Î¿Î¹ÏÎ±ÏƒÎ¼ÏŒ Î¤Î¿Ï…Ï‚. Î•Ï…Ï‡Î±ÏÎ¹ÏƒÏ„Î¿ÏÎ¼Îµ Î³Î¹Î± Ï„Î·Î½ ÎºÎ±Ï„Î±Î½ÏŒÎ·ÏƒÎ· ÏƒÎ±Ï‚! \r\n\r\nTOWER PREP (2010) \r\nIan is a rebellious teenager who had recently been suspended from his school. Shortly thereafter, he wakes in a mysterious preparatory high school, with no idea how he got there nor where it is located. The school itself is focused on finding the &quot;unique potential&quot; of each of its students. Along the way, he makes friends with C.J., Gabe, and Suki. Together, they investigate the mysteries of the school while trying to escape. \r\n\r\nTOWER PREP (2010) \r\nÎ ÎµÏÎ¹Î³ÏÎ±Ï†Î®: \r\nÎŸ 'Î™Î±Î½ ÎµÎ¯Î½Î±Î¹ ÎµÏ€Î±Î½Î±ÏƒÏ„Î±Ï„Î¹ÎºÏŒÏ‚ Î­Ï†Î·Î²Î¿Ï‚ Ï€Î¿Ï… Î¼ÏŒÎ»Î¹Ï‚ Î±Ï€Î¿Î²Î»Î®Î¸Î·ÎºÎµ Î±Ï€ÏŒ Ï„Î¿ ÏƒÏ‡Î¿Î»ÎµÎ¯Î¿ Ï„Î¿Ï…. \r\nÎ›Î¯Î³Î¿ Î±ÏÎ³ÏŒÏ„ÎµÏÎ±, Î¾Ï…Ï€Î½Î¬ ÏƒÎµ Î­Î½Î± Î¼Ï…ÏƒÏ„Î·ÏÎ¹ÏŽÎ´ÎµÏ‚ Î³Ï…Î¼Î½Î¬ÏƒÎ¹Î¿ Ï‡Ï‰ÏÎ¯Ï‚ Î½Î± Î³Î½Ï‰ÏÎ¯Î¶ÎµÎ¹ Ï€ÏŽÏ‚ Î²ÏÎ­Î¸Î·ÎºÎµ ÎµÎºÎµÎ¯. \r\nÎ£Îµ Î±Ï…Ï„ÏŒ Ï„Î¿ Ï€ÎµÏÎ¯ÎµÏÎ³Î¿ ÏƒÏ‡Î¿Î»Î¹ÎºÏŒ ÏƒÏ…Î³ÎºÏÏŒÏ„Î·Î¼Î±, Ï„Î± Î¼Î±Î¸Î®Î¼Î±Ï„Î± Î´ÎµÎ½ Ï€ÎµÏÎ¹Î¿ÏÎ¯Î¶Î¿Î½Ï„Î±Î¹ ÏƒÏ„Î± ÎºÎ»Î±ÏƒÏƒÎ¹ÎºÎ¬ Î¼Î±Î¸Î·Î¼Î±Ï„Î¹ÎºÎ¬, \r\nÎ³Î»ÏŽÏƒÏƒÎ± ÎºÎ±Î¹ Ï‡Î·Î¼ÎµÎ¯Î± Î±Î»Î»Î¬ ÏƒÎµ ÎµÎ¹Î´Î¹ÎºÎ¬ Ï€ÏÎ¿Î³ÏÎ¬Î¼Î¼Î±Ï„Î± Ï€Î¿Ï… ÎºÎ±Î¸Î¿Î´Î·Î³Î¿ÏÎ½ Ï„Î¿Ï…Ï‚ Î¼Î±Î¸Î·Ï„Î­Ï‚ ÏƒÏ„Î¿ Î½Î± Î±Î½Î±Ï€Ï„ÏÎ¾Î¿Ï…Î½ ÎµÎ¹Î´Î¹ÎºÎ­Ï‚ Î´Ï…Î½Î¬Î¼ÎµÎ¹Ï‚. \r\nÎ ÎµÏÎ¹Ï€Î­Ï„ÎµÎ¹Î± Î±Î¼ÎµÏÎ¹ÎºÎ¬Î½Î¹ÎºÎ·Ï‚- ÎºÎ±Î½Î±Î´Î¹ÎºÎ®Ï‚ Ï€Î±ÏÎ±Î³Ï‰Î³Î®Ï‚ \r\nÎ Î±Î¯Î¶Î¿Ï…Î½: ÎÏ„ÏÎ¿Ï… Î’Î±Î½ 'Î‘ÎºÎµÏ, Î¡Î¬Î¹Î½ Î Î¯Î½ÎºÏƒÏ„Î¿Î½, Î•Î»Î¯Î¶ Î“ÎºÎ±Ï„Î¹Î­Î½ \r\n\r\nGeneral \r\nComplete name               : Tower.prep.DVB-T.X264.Ari.S01E02.mp4 \r\nFormat                      : MPEG-4 \r\nFormat profile              : Base Media \r\nCodec ID                    : isom (isom/iso2/avc1/mp41) \r\nFile size                   : 349 MiB \r\nDuration                    : 43mn 3s \r\nOverall bit rate mode       : Variable \r\nOverall bit rate            : 1 134 Kbps \r\nMovie name                  : Tower Prep DVB-T S01E02 \r\nPerformer                   : ARI \r\nEncoded date                : UTC 2016-01-17 10:06:58 \r\nTagged date                 : UTC 2016-01-17 10:06:58 \r\nWriting application         : Lavf57.20.100 \r\n\r\nVideo \r\nID                          : 1 \r\nFormat                      : AVC \r\nFormat/Info                 : Advanced Video Codec \r\nFormat profile              :    \r\nFormat settings, CABAC      : Yes \r\nFormat settings, ReFrames   : 16 frames \r\nCodec ID                    : avc1 \r\nCodec ID/Info               : Advanced Video Coding \r\nDuration                    : 43mn 3s \r\nBit rate mode               : Variable \r\nBit rate                    : 1 000 Kbps \r\nMaximum bit rate            : 17.5 Mbps \r\nWidth                       : 720 pixels \r\nHeight                      : 576 pixels \r\nDisplay aspect ratio        : 16:9 \r\nFrame rate mode             : Constant \r\nFrame rate                  : 25.000 fps \r\nStandard                    : PAL \r\nColor space                 : YUV \r\nChroma subsampling          : 4:2:0 \r\nBit depth                   : 8 bits \r\nScan type                   : Progressive \r\nBits/(Pixel*Frame)          : 0.096 \r\nStream size                 : 308 MiB (88%) \r\nWriting library             : x264 core 148 r2638 \r\nLanguage                    : English \r\n\r\nAudio \r\nID                          : 2 \r\nFormat                      : AAC \r\nFormat/Info                 : Advanced Audio Codec \r\nFormat profile              : LC \r\nCodec ID                    : 40 \r\nDuration                    : 43mn 3s \r\nBit rate mode               : Constant \r\nBit rate                    : 128 Kbps \r\nChannel(s)                  : 2 channels \r\nChannel positions           : Front: L R \r\nSampling rate               : 48.0 KHz \r\nFrame rate                  : 46.875 fps (1024 spf) \r\nCompression mode            : Lossy \r\nStream size                 : 39.4 MiB (11%) \r\nLanguage                    : English \r\nDefault                     : Yes \r\n\r\nSCREENSHOT: \nhttp://imgur.com/AlDP20l","torrent":{"xt":"urn:btih:909418b7f5fcba52209c978505a9e8da41c6760c","amp;dn":"Tower+Prep+DVB-T.X264.Ari.S01E02+Greek+Subs","amp;tr":["udp%3A%2F%2Ftracker.leechers-paradise.org%3A6969","udp%3A%2F%2Fzer0day.ch%3A1337","udp%3A%2F%2Fopen.demonii.com%3A1337","udp%3A%2F%2Ftracker.coppersurfer.tk%3A6969","udp%3A%2F%2Fexodus.desync.com%3A6969"],"infoHash":"909418b7f5fcba52209c978505a9e8da41c6760c","infoHashBuffer":{"type":"Buffer","data":[144,148,24,183,245,252,186,82,32,156,151,133,5,169,232,218,65,198,118,12]},"announce":[],"urlList":[]}}